<?xml version="1.0" encoding="utf-8"?>
<!-- Generator: Adobe Illustrator 15.0.2, SVG Export Plug-In . SVG Version: 6.00 Build 0)  -->
<!DOCTYPE svg PUBLIC "-//W3C//DTD SVG 1.1//EN" "http://www.w3.org/Graphics/SVG/1.1/DTD/svg11.dtd">
<svg version="1.1" id="Layer_1" xmlns="http://www.w3.org/2000/svg" xmlns:xlink="http://www.w3.org/1999/xlink" x="0px" y="0px"
	 width="512px" height="384px" viewBox="0 0 512 384" enable-background="new 0 0 512 384" xml:space="preserve">
<g>
	<path d="M416.828,191.969c-1.375,0-2.719,0-4.031,0.031c2.109-10.531,3.203-21.281,3.203-32C416,71.773,344.219,0,256,0
		C167.844,0,96,71.07,95.906,158.367c0,0.031,0.25,3.234,0.25,3.234l0,0C41.344,169.438,0,216.906,0,272
		c0,55.875,40.258,103.938,96,112h80c8.828,0,16-7.172,16-16s-7.172-16-16-16l-77.664,0.156C61.148,346.688,32,311.453,32,272
		c0-39.297,29.508-73.117,68.672-78.719l13.758-1.984c7.875-1.125,13.727-7.875,13.727-15.844l-0.25-17.023
		C128,88.703,185.438,32,256,32c70.594,0,128,57.406,128,128c0,8.672-0.875,17.406-2.625,25.891l-4.219,20.359
		c-1.062,5.078,0.438,10.328,3.969,14.125c3.516,3.781,8.562,5.734,13.812,4.938c0.359-0.031,10.375-1.344,21.891-1.344
		C451.688,223.969,480,252.672,480,288c0,35.297-28.703,64-64,64H304c-44.797,0-47.844-26.844-48-32V213.828l37.859,37.828
		c6.234,6.234,16.391,6.234,22.609,0c6.25-6.25,6.25-16.391,0-22.625l-64.375-64.359c-3.133-3.133-7.266-4.672-11.391-4.672
		c-0.258,0-0.445-0.125-0.703-0.125c-4.609,0-8.672,1.984-11.586,5.086l-64.445,64.383c-6.242,6.25-6.242,16.375,0,22.625
		s16.383,6.25,22.625,0L224,214.594V320c0,22.109,16.703,64,80,64h112c52.938,0,96-43.062,96-96S469.312,191.969,416.828,191.969z"
		/>
</g>
</svg>
